<?xml version="1.0" standalone="no"?>
<!DOCTYPE svg PUBLIC "-//W3C//DTD SVG 20010904//EN"
 "http://www.w3.org/TR/2001/REC-SVG-20010904/DTD/svg10.dtd">
<svg version="1.0" xmlns="http://www.w3.org/2000/svg"
 width="2048.000000pt" height="2048.000000pt" viewBox="0 0 2048.000000 2048.000000"
 preserveAspectRatio="xMidYMid meet">
<metadata>
Created by potrace 1.14, written by Peter Selinger 2001-2017
</metadata>
<g transform="translate(0.000000,2048.000000) scale(0.100000,-0.100000)"
fill="#000000" stroke="none">
<path d="M12090 20478 c0 -3 -7 -41 -15 -84 -8 -44 -21 -117 -29 -164 -20
-113 -131 -717 -156 -850 -11 -58 -76 -413 -144 -790 -262 -1434 -358 -1963
-401 -2195 -24 -132 -51 -278 -59 -325 -8 -47 -40 -220 -70 -385 -127 -691
-412 -2255 -420 -2300 -3 -16 -58 -319 -123 -673 -85 -465 -121 -641 -130
-638 -7 3 -1021 786 -2254 1742 -1233 955 -2248 1737 -2256 1738 -7 1 -13 6
-13 10 1 4 -17 22 -39 39 -22 18 -57 51 -77 75 -20 24 -38 41 -40 39 -2 -2 18
-145 46 -317 28 -172 59 -370 70 -439 28 -179 68 -431 74 -466 2 -16 14 -91
26 -165 11 -74 32 -202 45 -285 13 -82 41 -253 61 -380 19 -126 45 -286 56
-355 10 -69 23 -152 28 -185 5 -33 23 -145 40 -250 17 -104 33 -206 36 -225 3
-19 9 -57 14 -85 5 -27 16 -97 24 -155 15 -95 40 -255 96 -605 11 -66 42 -266
70 -445 29 -179 60 -379 71 -445 10 -66 28 -176 39 -245 10 -69 69 -440 130
-825 62 -385 116 -729 121 -764 5 -36 23 -148 40 -250 16 -102 32 -199 34
-216 3 -16 9 -57 15 -90 6 -33 35 -220 65 -415 31 -195 66 -422 80 -505 13
-82 41 -253 60 -380 20 -126 45 -282 55 -345 25 -155 20 -123 105 -665 42
-264 87 -547 100 -630 13 -82 47 -296 75 -475 28 -179 57 -363 65 -410 26
-155 44 -272 95 -600 28 -179 55 -350 61 -380 5 -30 30 -185 54 -345 25 -159
52 -330 60 -380 8 -49 42 -263 75 -475 34 -212 72 -452 85 -535 14 -82 27
-168 30 -190 7 -46 76 -478 106 -665 22 -140 42 -262 64 -407 9 -54 25 -154
36 -223 11 -69 33 -208 49 -309 16 -101 31 -186 34 -188 5 -6 8 6 26 107 6 36
16 85 21 110 5 25 52 281 104 570 97 532 313 1718 340 1865 8 44 28 152 44
240 17 88 48 259 70 380 22 121 96 531 166 910 69 380 173 949 231 1265 57
316 115 634 129 705 13 72 65 353 114 625 50 272 124 680 165 905 41 226 77
424 80 440 4 26 76 419 91 500 3 17 38 207 78 423 39 216 75 394 79 395 4 1
1010 -729 2235 -1623 1225 -894 2239 -1633 2255 -1642 17 -11 30 -13 33 -7 8
12 15 -27 -116 714 -60 341 -121 685 -135 765 -25 147 -105 600 -124 700 -5
30 -19 107 -30 170 -59 336 -152 866 -166 940 -28 157 -44 244 -94 535 -28
160 -55 313 -60 340 -9 45 -99 552 -151 855 -11 63 -40 228 -64 365 -25 138
-59 329 -76 425 -17 96 -44 249 -60 340 -16 91 -68 383 -115 650 -47 267 -94
535 -105 595 -10 61 -35 200 -54 310 -19 110 -42 238 -51 285 -8 47 -24 137
-35 200 -10 63 -39 228 -64 365 -41 227 -208 1170 -255 1440 -24 136 -39 222
-96 545 -25 140 -54 307 -65 370 -11 63 -38 216 -60 340 -22 124 -47 263 -55
310 -8 47 -35 200 -60 340 -25 140 -49 278 -54 305 -17 98 -51 292 -71 405
-28 155 -26 140 -49 275 -11 66 -43 246 -70 400 -28 154 -79 446 -115 650 -55
309 -75 409 -75 373z m-5885 -5118 c10 -11 16 -20 13 -20 -3 0 -13 9 -23 20
-10 11 -16 20 -13 20 3 0 13 -9 23 -20z"/>
</g>
</svg>
